<?xml version="1.0" standalone="no"?><!DOCTYPE svg PUBLIC "-//W3C//DTD SVG 1.1//EN" "http://www.w3.org/Graphics/SVG/1.1/DTD/svg11.dtd"><svg xmlns="http://www.w3.org/2000/svg" viewBox="0 0 650 400" version="1.1"><clipPath id="box"><rect x="0" y="0" width="650" height="400" style="fill:none;stroke:none;" /></clipPath><g clip-path="url(#box)"><rect x="0.00" y="0.00" width="650.00" height="400.00" style="fill:#FFFFFF;stroke:none;" /><path d="M0.00 400.00 L650.00 400.00 M0.00 360.00 L650.00 360.00 M0.00 320.00 L650.00 320.00 M0.00 280.00 L650.00 280.00 M0.00 240.00 L650.00 240.00 M0.00 200.00 L650.00 200.00 M0.00 160.00 L650.00 160.00 M0.00 120.00 L650.00 120.00 M0.00 79.00 L650.00 79.00 M0.00 39.00 L650.00 39.00 M0.00 0.00 L650.00 0.00 M0.00 0.00 L0.00 400.00 M65.00 0.00 L65.00 400.00 M130.00 0.00 L130.00 400.00 M195.00 0.00 L195.00 400.00 M260.00 0.00 L260.00 400.00 M325.00 0.00 L325.00 400.00 M390.00 0.00 L390.00 400.00 M454.00 0.00 L454.00 400.00 M520.00 0.00 L520.00 400.00 M585.00 0.00 L585.00 400.00 M650.00 0.00 L650.00 400.00 " style="fill:none;stroke:#D0D0D0;stroke-width:1;" /><path d="M0.00 0.00 L0.00 400.00 " style="fill:none;stroke:#000000;stroke-width:1;" /><path d="M-6.50 400.00 L6.50 400.00 M-6.50 360.00 L6.50 360.00 M-6.50 320.00 L6.50 320.00 M-6.50 280.00 L6.50 280.00 M-6.50 240.00 L6.50 240.00 M-6.50 200.00 L6.50 200.00 M-6.50 160.00 L6.50 160.00 M-6.50 120.00 L6.50 120.00 M-6.50 80.00 L6.50 80.00 M-6.50 40.00 L6.50 40.00 M-6.50 0.00 L6.50 0.00 " style="fill:none;stroke:#000000;stroke-width:1;" /><path d="M0.00 400.00 L650.00 400.00 " style="fill:none;stroke:#000000;stroke-width:1;" /><path d="M0.00 393.50 L0.00 406.50 M65.00 393.50 L65.00 406.50 M130.00 393.50 L130.00 406.50 M195.00 393.50 L195.00 406.50 M260.00 393.50 L260.00 406.50 M325.00 393.50 L325.00 406.50 M390.00 393.50 L390.00 406.50 M455.00 393.50 L455.00 406.50 M520.00 393.50 L520.00 406.50 M585.00 393.50 L585.00 406.50 M650.00 393.50 L650.00 406.50 " style="fill:none;stroke:#000000;stroke-width:1;" /><text x="8.125" y="362.5" text-anchor="start" style="font:10px Droid Sans,Trebuchet MS,Arial,Helvetica,sans-serif;stroke:none;fill:#000000">1</text><text x="8.125" y="322.5" text-anchor="start" style="font:10px Droid Sans,Trebuchet MS,Arial,Helvetica,sans-serif;stroke:none;fill:#000000">2</text><text x="8.125" y="282.5" text-anchor="start" style="font:10px Droid Sans,Trebuchet MS,Arial,Helvetica,sans-serif;stroke:none;fill:#000000">3</text><text x="8.125" y="242.5" text-anchor="start" style="font:10px Droid Sans,Trebuchet MS,Arial,Helvetica,sans-serif;stroke:none;fill:#000000">4</text><text x="8.125" y="202.5" text-anchor="start" style="font:10px Droid Sans,Trebuchet MS,Arial,Helvetica,sans-serif;stroke:none;fill:#000000">5</text><text x="8.125" y="162.5" text-anchor="start" style="font:10px Droid Sans,Trebuchet MS,Arial,Helvetica,sans-serif;stroke:none;fill:#000000">6</text><text x="8.125" y="122.5" text-anchor="start" style="font:10px Droid Sans,Trebuchet MS,Arial,Helvetica,sans-serif;stroke:none;fill:#000000">7</text><text x="8.125" y="82.5" text-anchor="start" style="font:10px Droid Sans,Trebuchet MS,Arial,Helvetica,sans-serif;stroke:none;fill:#000000">8</text><text x="8.125" y="42.5" text-anchor="start" style="font:10px Droid Sans,Trebuchet MS,Arial,Helvetica,sans-serif;stroke:none;fill:#000000">9</text><text x="65" y="389.625" text-anchor="middle" style="font:10px Droid Sans,Trebuchet MS,Arial,Helvetica,sans-serif;stroke:none;fill:#000000">1</text><text x="130" y="389.625" text-anchor="middle" style="font:10px Droid Sans,Trebuchet MS,Arial,Helvetica,sans-serif;stroke:none;fill:#000000">2</text><text x="195" y="389.625" text-anchor="middle" style="font:10px Droid Sans,Trebuchet MS,Arial,Helvetica,sans-serif;stroke:none;fill:#000000">3</text><text x="260" y="389.625" text-anchor="middle" style="font:10px Droid Sans,Trebuchet MS,Arial,Helvetica,sans-serif;stroke:none;fill:#000000">4</text><text x="325" y="389.625" text-anchor="middle" style="font:10px Droid Sans,Trebuchet MS,Arial,Helvetica,sans-serif;stroke:none;fill:#000000">5</text><text x="390" y="389.625" text-anchor="middle" style="font:10px Droid Sans,Trebuchet MS,Arial,Helvetica,sans-serif;stroke:none;fill:#000000">6</text><text x="454.99999999999994" y="389.625" text-anchor="middle" style="font:10px Droid Sans,Trebuchet MS,Arial,Helvetica,sans-serif;stroke:none;fill:#000000">7</text><text x="520" y="389.625" text-anchor="middle" style="font:10px Droid Sans,Trebuchet MS,Arial,Helvetica,sans-serif;stroke:none;fill:#000000">8</text><text x="585" y="389.625" text-anchor="middle" style="font:10px Droid Sans,Trebuchet MS,Arial,Helvetica,sans-serif;stroke:none;fill:#000000">9</text><rect x="63.00" y="158.00" width="5.00" height="5.00" style="fill:#000000;stroke:none;" /><rect x="453.00" y="38.00" width="5.00" height="5.00" style="fill:#000000;stroke:none;" /><rect x="193.00" y="318.00" width="5.00" height="5.00" style="fill:#000000;stroke:none;" /><rect x="583.00" y="278.00" width="5.00" height="5.00" style="fill:#000000;stroke:none;" /></g></svg>